<!-- Generator: Adobe Illustrator 17.1.0, SVG Export Plug-In  -->
<svg version="1.1"
	 xmlns="http://www.w3.org/2000/svg" xmlns:xlink="http://www.w3.org/1999/xlink" xmlns:a="http://ns.adobe.com/AdobeSVGViewerExtensions/3.0/"
	 x="0px" y="0px" width="65.4px" height="20.4px" viewBox="0 0 65.4 20.4" enable-background="new 0 0 65.4 20.4"
	 xml:space="preserve">
<defs>
</defs>
<g>
	<g>
		<g>
			<path fill="#FFFFFF" d="M3.8,15.7c-1.2,0-2.9-0.4-3.8-0.9l0.5-2c0.8,0.5,2.3,0.9,3.3,0.9c0.8,0,1.3-0.3,1.3-0.9
				c0-0.7-0.4-1-2.2-1.6c-1.6-0.6-2.7-1.2-2.7-3C0.3,6,2,4.9,4.2,4.9c1.2,0,2.5,0.4,3.2,0.8l-0.5,2C6.3,7.4,5.2,7.1,4.3,7.1
				c-1,0-1.4,0.3-1.4,0.8c0,0.6,0.7,0.8,1.9,1.2c1.9,0.7,2.9,1.6,2.9,3.3C7.8,14.6,5.9,15.7,3.8,15.7z"/>
			<path fill="#FFFFFF" d="M8.3,5.2h1.5V4.3C9.8,1,12,0,13.8,0c0.4,0,0.9,0,1.2,0.1l-0.3,2.1h-0.3c-1.8,0-2.1,0.9-2.1,2.2v0.8h2.1v2
				h-2.1v8.2H9.8V7.2H8.3V5.2z"/>
			<path fill="#FFFFFF" d="M26.9,5.2L26.9,5.2l1.2-2.5h1.3v2.5h2.8v2h-2.8v5.3c0,0.6,0.3,1,0.8,1c0.6,0,1.4-0.2,1.8-0.4l0.3,1.9
				c-0.6,0.4-1.6,0.7-2.6,0.7c-1.8,0-2.9-0.8-2.9-3V7.2l0,0V5.2z"/>
			<path fill="#FFFFFF" d="M33.7,1.7c0-0.9,0.7-1.6,1.7-1.6c1,0,1.7,0.7,1.7,1.6c0,0.9-0.8,1.6-1.7,1.6C34.4,3.3,33.7,2.6,33.7,1.7z
				 M34,5.4l2.6-0.5v10.5H34V5.4z"/>
			<path fill="#FFFFFF" d="M41.4,15.2v4.9h-2.6V5.3l2.6-0.4v1.2c0.8-0.8,1.8-1.2,2.8-1.2c2.5,0,4.1,1.9,4.1,5.2
				c0,3.4-1.8,5.5-4.9,5.5C42.7,15.7,41.9,15.4,41.4,15.2z M41.4,12.9c0.4,0.3,1.1,0.6,1.9,0.6c1.4,0,2.4-1.1,2.4-3.2
				c0-1.6-0.5-3.2-2.1-3.2c-0.9,0-1.7,0.5-2.2,1.2V12.9z"/>
			<path fill="#FFFFFF" d="M54.5,16.5c-0.7,2-1.8,3.8-4.2,3.8c-0.6,0-1.4-0.1-2-0.4l0.4-1.9c0.3,0.1,1,0.3,1.3,0.3
				c1.2,0,1.8-1.3,2.6-3.4l-4-9.8h2.8l2.5,6.4l2.2-6.4h2.7L54.5,16.5z"/>
		</g>
		<g>
			<path fill="#FFFFFF" d="M60.1,5.6H59V5.3h2.6v0.3h-1.1v3h-0.4V5.6z"/>
			<path fill="#FFFFFF" d="M62.1,5.3h0.5L63.8,8L65,5.3h0.4v3.3H65V6.1l-1.1,2.5h-0.2l-1.1-2.5v2.5h-0.4V5.3z"/>
		</g>
		<path fill="#FFFFFF" d="M20,4.4c-3.1,0-5.6,2.5-5.6,5.6c0,3.1,2.5,5.6,5.6,5.6c3.1,0,5.6-2.5,5.6-5.6C25.6,6.9,23.1,4.4,20,4.4z"
			/>
		<g>
			<path fill-rule="evenodd" clip-rule="evenodd" fill="#333333" d="M17.7,10.1c0-0.9,0-1.8,0-2.7c0-0.2,0.1-0.3,0.3-0.2
				c0.1,0,0.2,0.1,0.3,0.1c1.5,0.8,1.5,0.8,3,1.7c0.1,0.1,1.7,1,1.7,1.2c0,0.2-0.1,0.3-0.2,0.3c-1.5,0.8-3,1.6-4.4,2.5
				C18.3,13,18.1,13,18,13.1c-0.2,0.1-0.3,0-0.3-0.2C17.7,11.9,17.7,11,17.7,10.1z"/>
		</g>
	</g>
</g>
</svg>
